<?xml version="1.0" encoding="UTF-8"?>
<svg width="47px" height="60px" viewBox="0 0 47 60" version="1.1" xmlns="http://www.w3.org/2000/svg" xmlns:xlink="http://www.w3.org/1999/xlink">
    <!-- Generator: Sketch 63.1 (92452) - https://sketch.com -->
    <title>noun_Notebook_3188012</title>
    <desc>Created with Sketch.</desc>
    <g id="Page-1" stroke="none" stroke-width="1" fill="none" fill-rule="evenodd">
        <g id="noun_Notebook_3188012" fill="#FF373D" fill-rule="nonzero">
            <path d="M44,17 C45.6568542,17 47,15.6568542 47,14 L47,9 C47,7.34314575 45.6568542,6 44,6 L42,6 L42,5 C42,2.23857625 39.7614237,0 37,0 L1,0 C0.44771525,0 0,0.44771525 0,1 L0,59 C0,59.5522847 0.44771525,60 1,60 L37,60 C39.7614237,60 42,57.7614237 42,55 L42,29 L44,29 C45.6568542,29 47,27.6568542 47,26 L47,21 C47,19.3431458 45.6568542,18 44,18 L42,18 L42,17 L44,17 Z M44,8 C44.5522847,8 45,8.44771525 45,9 L45,14 C45,14.5522847 44.5522847,15 44,15 L42,15 L42,8 L44,8 Z M20,2 L20,10.23 L16.51,8.14 C16.2005989,7.96136721 15.8194011,7.96136721 15.51,8.14 L12,10.23 L12,2 L20,2 Z M2,2 L10,2 L10,12 C10.0000627,12.3593049 10.1928829,12.6909565 10.505101,12.8687761 C10.8173192,13.0465957 11.2009352,13.0432455 11.51,12.86 L16,10.17 L20.49,12.86 C20.7990648,13.0432455 21.1826808,13.0465957 21.494899,12.8687761 C21.8071171,12.6909565 21.9999373,12.3593049 22,12 L22,2 L30,2 L30,58 L2,58 L2,2 Z M40,55 C40,56.6568542 38.6568542,58 37,58 L32,58 L32,2 L37,2 C38.6568542,2 40,3.34314575 40,5 L40,55 Z M44,20 C44.5522847,20 45,20.4477153 45,21 L45,26 C45,26.5522847 44.5522847,27 44,27 L42,27 L42,20 L44,20 Z" id="Shape"></path>
        </g>
    </g>
</svg>