<?xml version="1.0" encoding="UTF-8"?>
<svg width="12px" height="9px" viewBox="0 0 12 9" version="1.1" xmlns="http://www.w3.org/2000/svg" xmlns:xlink="http://www.w3.org/1999/xlink">
    <!-- Generator: Sketch 63.1 (92452) - https://sketch.com -->
    <title>Path</title>
    <desc>Created with Sketch.</desc>
    <g id="Page-1" stroke="none" stroke-width="1" fill="none" fill-rule="evenodd">
        <g id="Tabless-Copy-11" transform="translate(-1036.000000, -461.000000)" fill="#2D2D2D" fill-rule="nonzero">
            <g id="Group-9" transform="translate(1027.000000, 310.000000)">
                <g id="Group-2" transform="translate(0.000000, 140.000000)">
                    <g id="Group-Copy" transform="translate(15.000000, 15.000000) rotate(-180.000000) translate(-15.000000, -15.000000) translate(0.000000, -0.000000)">
                        <path d="M20.293944,14.9375644 C20.300736,14.9290204 20.308584,14.9212684 20.3148,14.9122444 C20.328624,14.8922044 20.339808,14.8705324 20.350536,14.8485004 C20.353704,14.8419484 20.357976,14.8360684 20.360856,14.8295164 C20.372808,14.8017484 20.381952,14.7725644 20.388504,14.7424444 C20.388864,14.7408124 20.38956,14.7393964 20.38992,14.7377644 C20.396496,14.7062524 20.4,14.6735404 20.4,14.6400364 C20.4,14.6065324 20.396496,14.5738204 20.38992,14.5423084 C20.38956,14.5406764 20.388864,14.5392604 20.388504,14.5376284 C20.381952,14.5075084 20.372808,14.4783244 20.360856,14.4505564 C20.357976,14.4440044 20.353704,14.4381244 20.350536,14.4315724 C20.339808,14.4095404 20.328624,14.3878684 20.3148,14.3678284 C20.308584,14.3588044 20.300736,14.3510764 20.293944,14.3425084 C20.280888,14.3260924 20.267976,14.3098204 20.252976,14.2952764 C20.251224,14.2936444 20.249976,14.2915324 20.248224,14.2898764 L16.408224,10.6898764 C16.214976,10.5084604 15.910992,10.5183244 15.729816,10.7117884 C15.54852,10.9051564 15.558264,11.2089004 15.751728,11.3901964 L18.706176,14.1600364 L9.84,14.1600364 C9.57492,14.1600364 9.36,14.3749564 9.36,14.6400364 C9.36,14.9051164 9.57492,15.1200364 9.84,15.1200364 L18.706176,15.1200364 L15.751752,17.8898764 C15.558264,18.0711724 15.548544,18.3749164 15.72984,18.5682844 C15.824304,18.6691804 15.952032,18.7200364 16.08012,18.7200364 C16.197768,18.7200364 16.315656,18.6770284 16.408248,18.5901964 L20.248248,14.9901964 C20.25,14.9885644 20.251248,14.9864524 20.253,14.9847964 C20.268,14.9702764 20.280888,14.9539804 20.293944,14.9375644 Z" id="Path"></path>
                    </g>
                </g>
            </g>
        </g>
    </g>
</svg>