<?xml version="1.0" encoding="UTF-8"?>
<svg width="44px" height="54px" viewBox="0 0 44 54" version="1.1" xmlns="http://www.w3.org/2000/svg" xmlns:xlink="http://www.w3.org/1999/xlink">
    <!-- Generator: Sketch 63.1 (92452) - https://sketch.com -->
    <title>noun_Refresh_3188014</title>
    <desc>Created with Sketch.</desc>
    <g id="Page-1" stroke="none" stroke-width="1" fill="none" fill-rule="evenodd">
        <g id="noun_Refresh_3188014" fill="#FF373D" fill-rule="nonzero">
            <path d="M17.33,45.6 L22.72,41.76 C23.0111715,41.552786 23.1696776,41.2059742 23.1358108,40.8502053 C23.1019439,40.4944363 22.8808491,40.1837601 22.5558107,40.0352052 C22.2307724,39.8866504 21.8511715,39.9227859 21.56,40.13 L14.56,45.13 L14.49,45.2 C14.3892654,45.2894148 14.3076325,45.3982586 14.25,45.52 C14.2488525,45.5466543 14.2488525,45.5733457 14.25,45.6 C14.25,45.6 14.25,45.66 14.25,45.69 C14.2433166,45.7564992 14.2433166,45.8235008 14.25,45.89 C14.2395484,46.0820194 14.2846846,46.27298 14.38,46.44 C14.38,46.44 14.38,46.5 14.38,46.52 L19.38,53.52 C19.587214,53.8111715 19.9340258,53.9696776 20.2897947,53.9358107 C20.6455636,53.9019438 20.9562399,53.6808491 21.1047947,53.3558107 C21.2533496,53.0307724 21.217214,52.6511715 21.01,52.36 L17.64,47.63 C26.124463,49.3934318 34.8266061,45.8053232 39.6024493,38.5743394 C44.3782926,31.3433557 44.2624159,21.9312152 39.31,14.82 C38.984152,14.3698879 38.3551121,14.269152 37.905,14.595 C37.4548879,14.920848 37.354152,15.5498879 37.68,16 C42.2854828,22.5509882 42.3311251,31.2751715 37.7944382,37.8739888 C33.2577513,44.4728061 25.0957507,47.5542348 17.33,45.6 Z" id="Path"></path>
            <path d="M5.51,39.6000507 C5.89057289,39.6038203 6.24032177,39.3912781 6.41222339,39.0517193 C6.58412501,38.7121606 6.54837441,38.3044593 6.32,38 C1.71451722,31.4490118 1.66887488,22.7248285 6.20556179,16.1260112 C10.7422487,9.52719391 18.9042493,6.44576517 26.67,8.4 L21.28,12.24 C20.829888,12.5603252 20.7246749,13.1848879 21.045,13.635 C21.3653252,14.085112 21.9898879,14.1903251 22.44,13.87 L29.44,8.87 L29.5,8.8 C29.6007346,8.71058516 29.6823675,8.6017414 29.74,8.48 C29.7410671,8.45334401 29.7410671,8.42665599 29.74,8.4 C29.74,8.4 29.74,8.34 29.74,8.31 C29.8061833,8.05655181 29.7702769,7.78725349 29.64,7.56 C29.64,7.56 29.64,7.5 29.64,7.48 L24.64,0.48 C24.3196748,0.0298879289 23.6951121,-0.0753251549 23.245,0.245 C22.7948879,0.565325155 22.6896748,1.18988793 23.01,1.64 L26.39,6.37 C17.8976702,4.57933017 9.17333111,8.15861486 4.38556073,15.3976354 C-0.402209647,22.636656 -0.281505302,32.0659084 4.69,39.18 C4.87872221,39.4450724 5.18461348,39.6017484 5.51,39.6000507 L5.51,39.6000507 Z" id="Path"></path>
        </g>
    </g>
</svg>