<?xml version="1.0" encoding="UTF-8"?>
<svg width="60px" height="59px" viewBox="0 0 60 59" version="1.1" xmlns="http://www.w3.org/2000/svg" xmlns:xlink="http://www.w3.org/1999/xlink">
    <!-- Generator: Sketch 63.1 (92452) - https://sketch.com -->
    <title>noun_Settings_3190758</title>
    <desc>Created with Sketch.</desc>
    <g id="Page-1" stroke="none" stroke-width="1" fill="none" fill-rule="evenodd">
        <g id="noun_Settings_3190758" fill="#FF373D" fill-rule="nonzero">
            <path d="M26.49,30.67 C23.7583863,28.7981566 20.1365801,28.8796442 17.4919178,30.8724494 C14.8472556,32.8652546 13.7704681,36.32425 14.8167272,39.4660414 C15.8629862,42.6078327 18.7985919,44.7306469 22.11,44.7400076 C22.5896473,44.74067 23.0683366,44.6971528 23.54,44.61 C26.6070877,44.0400541 29.0284739,41.6780182 29.6743424,38.6260158 C30.320211,35.5740134 29.0632673,32.4335647 26.49,30.67 L26.49,30.67 Z M23.18,42.67 C21.1422567,43.1239383 19.0192206,42.4295953 17.6435128,40.8592814 C16.267805,39.2889676 15.8587606,37.0930447 16.5768002,35.1327191 C17.2948399,33.1723934 19.0254835,31.7602082 21.09,31.45 C21.4394558,31.3837834 21.7943261,31.350305 22.15,31.35 C25.084812,31.3819552 27.5174123,33.6336008 27.7756809,36.5572013 C28.0339495,39.4808018 26.0337591,42.1240367 23.15,42.67 L23.18,42.67 Z" id="Shape"></path>
            <path d="M41.56,27.57 C41.3411965,27.4191173 41.0713288,27.3615455 40.81,27.41 L35.68,28.41 C34.8779,27.1430566 33.9016816,25.9951584 32.78,25 L34.51,20.08 C34.5995773,19.8294026 34.5855708,19.5534358 34.4710813,19.3131956 C34.3565919,19.0729554 34.1510643,18.8882604 33.9,18.8 L24.41,15.45 C24.1594026,15.3604227 23.8834358,15.3744292 23.6431956,15.4889187 C23.4029554,15.6034081 23.2182604,15.8089357 23.13,16.06 L21.41,21 C19.914356,21.0564245 18.4351653,21.3327198 17.02,21.82 L13.63,17.82 C13.4576167,17.6184238 13.2122137,17.4935881 12.9477834,17.4729588 C12.683353,17.4523295 12.421559,17.5375966 12.22,17.71 L4.57,24.25 C4.36842376,24.4223833 4.24358811,24.6677863 4.22295879,24.9322166 C4.20232947,25.196647 4.28759656,25.458441 4.46,25.66 L7.85,29.66 C7.16242584,30.9873076 6.66424817,32.4044211 6.37,33.87 L1.24,34.87 C0.713538112,34.9713188 0.360643157,35.469783 0.44,36 L2.29,45.89 C2.33851681,46.1515254 2.48922547,46.3829461 2.70879298,46.5330778 C2.92836049,46.6832094 3.19869312,46.7396801 3.46,46.69 L8.59,45.69 C9.39361522,46.9498814 10.3697682,48.0909706 11.49,49.08 L9.75,54 C9.66042269,54.2505974 9.6744292,54.5265642 9.78891866,54.7668044 C9.90340811,55.0070446 10.1089357,55.1917396 10.36,55.28 L19.85,58.63 C19.9558375,58.6684365 20.0674065,58.6887218 20.18,58.69 C20.6036174,58.6883124 20.9802085,58.4198911 21.12,58.02 L22.85,53.1 C23.5982681,53.0689591 24.3434336,52.9854204 25.08,52.85 C25.8160841,52.7123629 26.541295,52.5218697 27.25,52.28 L30.64,56.28 C30.8123833,56.4815762 31.0577863,56.6064119 31.3222166,56.6270412 C31.586647,56.6476705 31.848441,56.5624034 32.05,56.39 L39.69,49.85 C39.8915762,49.6776167 40.0164119,49.4322137 40.0370412,49.1677834 C40.0576705,48.903353 39.9724034,48.641559 39.8,48.44 L36.41,44.44 C37.0975742,43.1126924 37.5957518,41.6955789 37.89,40.23 L43.02,39.23 C43.2815254,39.1814832 43.5129461,39.0307745 43.6630778,38.811207 C43.8132094,38.5916395 43.8696801,38.3213069 43.82,38.06 L42,28.21 C41.9455508,27.9460985 41.7869037,27.7153391 41.56,27.57 Z M36.85,38.38 C36.4346508,38.4596634 36.1143257,38.7920007 36.05,39.21 C35.7843624,40.9183853 35.2045828,42.5627892 34.34,44.06 C34.1291413,44.4278854 34.1732248,44.8887579 34.45,45.21 L37.64,48.94 L31.52,54.18 L28.33,50.45 C28.0536776,50.1288303 27.6049526,50.016649 27.21,50.17 C26.4069455,50.4824852 25.5767555,50.7201605 24.73,50.88 C23.882081,51.0344463 23.021869,51.1114303 22.16,51.11 C21.7363826,51.1116876 21.3597915,51.3801089 21.22,51.78 L19.59,56.41 L12,53.73 L13.6,49.1 C13.7370067,48.7045885 13.6133155,48.2656844 13.29,48 C11.9447993,46.9140694 10.8123666,45.5883771 9.95,44.09 C9.74408408,43.7428484 9.34965739,43.5535236 8.95,43.61 L4.12,44.51 L2.59,36.57 L7.42,35.67 C7.83534924,35.5903366 8.15567429,35.2579993 8.22,34.84 C8.48683078,33.1350648 9.06657387,31.4941546 9.93,30 C10.1408587,29.6321146 10.0967752,29.1712421 9.82,28.85 L6.63,25.12 L12.76,19.88 L15.95,23.61 C16.2263224,23.9311697 16.6750474,24.043351 17.07,23.89 C18.6813313,23.2570014 20.3988355,22.9379393 22.13,22.95 C22.5536174,22.9483124 22.9302085,22.6798911 23.07,22.28 L24.7,17.65 L32.3,20.33 L30.67,25 C30.5512836,25.3905901 30.681907,25.8141268 31,26.07 C32.3399275,27.1636718 33.4655965,28.4961654 34.32,30 C34.5259159,30.3471516 34.9203426,30.5364764 35.32,30.48 L40.15,29.58 L41.63,37.51 L36.85,38.38 Z" id="Shape"></path>
            <path d="M47,8 C44.2385763,8 42,10.2385763 42,13 C42,15.7614237 44.2385763,18 47,18 C49.7614237,18 52,15.7614237 52,13 C52,11.6739176 51.4732158,10.402148 50.5355339,9.46446609 C49.597852,8.5267842 48.3260824,8 47,8 Z M47,16 C45.3431458,16 44,14.6568542 44,13 C44,11.3431458 45.3431458,10 47,10 C48.6568542,10 50,11.3431458 50,13 C50,14.6568542 48.6568542,16 47,16 Z" id="Shape"></path>
            <path d="M59,9 L56.16,9 C55.8479165,8.31468373 55.4587382,7.66717146 55,7.07 L56.42,4.61 C56.553545,4.37947626 56.5895837,4.10519371 56.5201217,3.84799634 C56.4506596,3.59079898 56.2814397,3.37195122 56.05,3.24 L50.85,0.24 C50.6194763,0.106454987 50.3451937,0.0704162853 50.0879963,0.139878348 C49.830799,0.20934041 49.6119512,0.378560291 49.48,0.61 L48.12,3.07 C47.3793689,2.98036318 46.6306311,2.98036318 45.89,3.07 L44.46,0.61 C44.3280488,0.378560291 44.109201,0.20934041 43.8520037,0.139878348 C43.5948063,0.0704162853 43.3205237,0.106454987 43.09,0.24 L37.89,3.24 C37.6585603,3.37195122 37.4893404,3.59079898 37.4198783,3.84799634 C37.3504163,4.10519371 37.386455,4.37947626 37.52,4.61 L39,7.07 C38.5412618,7.66717146 38.1520835,8.31468373 37.84,9 L35,9 C34.4477153,9 34,9.44771525 34,10 L34,16 C34,16.5522847 34.4477153,17 35,17 L37.84,17 C38.1520835,17.6853163 38.5412618,18.3328285 39,18.93 L37.58,21.39 C37.446455,21.6205237 37.4104163,21.8948063 37.4798783,22.1520037 C37.5493404,22.409201 37.7185603,22.6280488 37.95,22.76 L43.15,25.76 C43.3805237,25.893545 43.6548063,25.9295837 43.9120037,25.8601217 C44.169201,25.7906596 44.3880488,25.6214397 44.52,25.39 L45.94,22.93 C46.6806311,23.0196368 47.4293689,23.0196368 48.17,22.93 L49.59,25.39 C49.7219512,25.6214397 49.940799,25.7906596 50.1979963,25.8601217 C50.4551937,25.9295837 50.7294763,25.893545 50.96,25.76 L56.16,22.76 C56.3914397,22.6280488 56.5606596,22.409201 56.6301217,22.1520037 C56.6995837,21.8948063 56.663545,21.6205237 56.53,21.39 L55,18.93 C55.4587382,18.3328285 55.8479165,17.6853163 56.16,17 L59,17 C59.5522847,17 60,16.5522847 60,16 L60,10 C60,9.44771525 59.5522847,9 59,9 Z M58,15 L55.48,15 C55.0563826,15.0016876 54.6797915,15.2701089 54.54,15.67 C54.2141944,16.5964637 53.7191305,17.4543483 53.08,18.2 C52.8174404,18.5258331 52.7855206,18.9806904 53,19.34 L54.26,21.52 L50.8,23.52 L49.54,21.34 C49.360659,21.0293658 49.0286848,20.838576 48.67,20.84 L48.49,20.84 C47.5256709,21.0272341 46.5343291,21.0272341 45.57,20.84 C45.1703426,20.7835236 44.7759159,20.9728484 44.57,21.32 L43.31,23.5 L39.85,21.5 L41,19.34 C41.2108587,18.9721146 41.1667752,18.5112421 40.89,18.19 C40.2508695,17.4443483 39.7558056,16.5864637 39.43,15.66 C39.2902085,15.2601089 38.9136174,14.9916876 38.49,14.99 L36,14.99 L36,11 L38.52,11 C38.9436174,10.9983124 39.3202085,10.7298911 39.46,10.33 C39.7858056,9.4035363 40.2808695,8.5456517 40.92,7.8 C41.1825596,7.47416685 41.2144794,7.01930956 41,6.66 L39.77,4.47 L43.23,2.47 L44.49,4.65 C44.6959159,4.99715163 45.0903426,5.18647644 45.49,5.13 C46.4543291,4.94276594 47.4456709,4.94276594 48.41,5.13 C48.8096574,5.18647644 49.2040841,4.99715163 49.41,4.65 L50.67,2.47 L54.13,4.47 L53,6.66 C52.7891413,7.02788536 52.8332248,7.48875789 53.11,7.81 C53.7491305,8.5556517 54.2441944,9.4135363 54.57,10.34 C54.7097915,10.7398911 55.0863826,11.0083124 55.51,11.01 L58,11.01 L58,15 Z" id="Shape"></path>
        </g>
    </g>
</svg>