<?xml version="1.0" encoding="UTF-8"?>
<svg width="17px" height="17px" viewBox="0 0 17 17" version="1.1" xmlns="http://www.w3.org/2000/svg" xmlns:xlink="http://www.w3.org/1999/xlink">
    <!-- Generator: Sketch 63.1 (92452) - https://sketch.com -->
    <title>social-media</title>
    <desc>Created with Sketch.</desc>
    <g id="Page-1" stroke="none" stroke-width="1" fill="none" fill-rule="evenodd" opacity="0.600000024">
        <g id="Tabless-Copy-11" transform="translate(-125.000000, -736.000000)" fill="#FF373D" fill-rule="nonzero">
            <g id="social-media" transform="translate(125.000000, 736.000000)">
                <path d="M0.321663418,11.7063392 L8.07622612,16.8769903 C8.34062638,17.0395893 8.62340741,17.0417102 8.89063548,16.8769903 L16.6451982,11.7063392 C16.8438519,11.5741391 16.9668616,11.3373099 16.9668616,11.1004808 L16.9668616,5.93124366 C16.9668616,5.69441455 16.8438519,5.45758545 16.6451982,5.32538532 L8.89063548,0.155441196 C8.62623522,-0.00715789474 8.34345419,-0.00857179987 8.07622612,0.155441196 L0.321663418,5.32538532 C0.123009747,5.45758545 0,5.69441455 0,5.93124366 L0,11.1004808 C0,11.3373099 0.123009747,11.5741391 0.321663418,11.7063392 Z M7.7545627,14.9074204 L2.04521378,11.1011878 L4.59236387,9.39672515 L7.7545627,11.5083925 L7.7545627,14.9074204 Z M9.2122989,14.9074204 L9.2122989,11.5083925 L12.3744977,9.39672515 L14.9216478,11.1011878 L9.2122989,14.9074204 Z M15.5091254,9.73676933 L13.681653,8.51586225 L15.5091254,7.29424821 L15.5091254,9.73676933 Z M9.2122989,2.12501105 L14.9216478,5.93124366 L12.3744977,7.6357063 L9.2122989,5.52403899 L9.2122989,2.12501105 Z M8.4834308,6.79231189 L11.058859,8.51586225 L8.4834308,10.2394126 L5.9080026,8.51586225 L8.4834308,6.79231189 Z M7.7545627,2.12501105 L7.7545627,5.52403899 L4.59236387,7.6357063 L2.04521378,5.93124366 L7.7545627,2.12501105 Z M1.45844314,7.29566212 L1.45844314,7.29495517 L3.28591553,8.5165692 L1.45844314,9.73818324 L1.45844314,7.29566212 Z" id="Shape"></path>
            </g>
        </g>
    </g>
</svg>