<?xml version="1.0" encoding="UTF-8"?>
<svg width="19px" height="17px" viewBox="0 0 19 17" version="1.1" xmlns="http://www.w3.org/2000/svg" xmlns:xlink="http://www.w3.org/1999/xlink">
    <!-- Generator: Sketch 63.1 (92452) - https://sketch.com -->
    <title>social-media (1)</title>
    <desc>Created with Sketch.</desc>
    <g id="Page-1" stroke="none" stroke-width="1" fill="none" fill-rule="evenodd" opacity="0.600000024">
        <g id="Tabless-Copy-11" transform="translate(-96.000000, -736.000000)" fill="#FF373D" fill-rule="nonzero">
            <g id="social-media-(1)" transform="translate(96.500000, 736.000000)">
                <path d="M8.84552846,0.0230352304 C3.95837398,0.0230352304 0,3.91506775 0,8.71524119 C0,12.5564119 2.5342439,15.8137778 6.04813008,16.9622222 C6.4904065,17.0440434 6.65257453,16.7749919 6.65257453,16.544271 C6.65257453,16.3378753 6.64520325,15.7909268 6.64151762,15.0663306 C4.18098645,15.5904282 3.66204878,13.9001951 3.66204878,13.9001951 C3.25957724,12.8969648 2.67798374,12.6286504 2.67798374,12.6286504 C1.87672629,12.0898103 2.73990244,12.1008672 2.73990244,12.1008672 C3.62814092,12.1613117 4.09474255,12.996477 4.09474255,12.996477 C4.88346883,14.3255176 6.16533333,13.9414743 6.67100271,13.7195989 C6.75061247,13.1571707 6.97838482,12.7746016 7.23121951,12.5571491 C5.26677507,12.3396965 3.2020813,11.5922493 3.2020813,8.26190786 C3.2020813,7.31322493 3.54484553,6.53776694 4.1124336,5.92963686 C4.01292141,5.7099729 3.71438482,4.82615718 4.18983198,3.62906233 C4.18983198,3.62906233 4.93064499,3.39613008 6.6223523,4.52024932 C7.32999458,4.32712195 8.0818645,4.23129539 8.83373442,4.22687263 C9.58560434,4.23129539 10.3374743,4.32712195 11.0451165,4.52024932 C12.7257669,3.39613008 13.4665799,3.62906233 13.4665799,3.62906233 C13.9420271,4.82615718 13.6434905,5.7099729 13.5550352,5.92963686 C14.1189377,6.53776694 14.4617019,7.31322493 14.4617019,8.26190786 C14.4617019,11.6010949 12.3940596,12.3360108 10.4259295,12.5497778 C10.735523,12.8107209 11.0230027,13.343664 11.0230027,14.1581897 C11.0230027,15.3213767 11.0119458,16.2560542 11.0119458,16.538374 C11.0119458,16.7661463 11.1667425,17.0381463 11.6200759,16.9511653 C15.1590244,15.8100921 17.6910569,12.5505149 17.6910569,8.71524119 C17.6910569,3.91506775 13.7304715,0.0230352304 8.84552846,0.0230352304 L8.84552846,0.0230352304 Z" id="Path"></path>
            </g>
        </g>
    </g>
</svg>