<?xml version="1.0" encoding="UTF-8"?>
<svg width="16px" height="16px" viewBox="0 0 16 16" version="1.1" xmlns="http://www.w3.org/2000/svg" xmlns:xlink="http://www.w3.org/1999/xlink">
    <!-- Generator: Sketch 63.1 (92452) - https://sketch.com -->
    <title>noun_note_716005</title>
    <desc>Created with Sketch.</desc>
    <g id="Page-1" stroke="none" stroke-width="1" fill="none" fill-rule="evenodd" opacity="0.600000024">
        <g id="Tabless-Copy-11" transform="translate(-70.000000, -738.000000)" fill="#FF373D" fill-rule="nonzero">
            <g id="noun_note_716005" transform="translate(70.000000, 738.000000)">
                <path d="M15.1138462,12.3487179 L12.9415385,12.3487179 C12.6016709,12.3487179 12.3261504,12.624235 12.3261504,12.9641026 L12.3261504,15.134359 C12.3256692,15.2176954 12.3756521,15.2930421 12.4526192,15.3249992 C12.5295863,15.3569563 12.6182379,15.3391713 12.6769231,15.28 L15.2574359,12.6974359 C15.3148964,12.6388307 15.3318924,12.5516162 15.3006425,12.4757234 C15.2693925,12.3998306 15.1959129,12.3498708 15.1138462,12.3487179 Z" id="Path"></path>
                <path d="M14.9928205,0 L0.976410256,0 C0.523253539,0 0.155897436,0.367356103 0.155897436,0.820512821 L0.155897436,15.0153846 C0.155897436,15.4685413 0.523253539,15.8358974 0.976410256,15.8358974 L10.6851282,15.8358974 C10.9117066,15.8358974 11.0953846,15.6522194 11.0953846,15.425641 L11.0953846,12.9641026 C11.0953846,11.9444999 11.9219358,11.1179487 12.9415385,11.1179487 L15.4030769,11.1179487 C15.6296553,11.1179487 15.8133333,10.9342707 15.8133333,10.7076923 L15.8133333,0.820512821 C15.8133333,0.367356103 15.4459772,0 14.9928205,0 Z M9.02564103,10.3610256 L3.00923077,10.3610256 C2.66936323,10.3610256 2.39384615,10.0855086 2.39384615,9.74564103 C2.39384615,9.40577349 2.66936323,9.13025641 3.00923077,9.13025641 L9.02564103,9.13025641 C9.36550856,9.13025641 9.64102564,9.40577349 9.64102564,9.74564103 C9.64102564,10.0855086 9.36550856,10.3610256 9.02564103,10.3610256 Z M13.1282051,7.28410256 L3.00923077,7.28410256 C2.66936323,7.28410256 2.39384615,7.00858549 2.39384615,6.66871795 C2.39384615,6.32885041 2.66936323,6.05333333 3.00923077,6.05333333 L13.1282051,6.05333333 C13.4680727,6.05333333 13.7435897,6.32885041 13.7435897,6.66871795 C13.7435897,7.00858549 13.4680727,7.28410256 13.1282051,7.28410256 Z M13.1282051,4.20717949 L3.00923077,4.20717949 C2.66936323,4.20717949 2.39384615,3.93166241 2.39384615,3.59179487 C2.39384615,3.25192733 2.66936323,2.97641026 3.00923077,2.97641026 L13.1282051,2.97641026 C13.4680727,2.97641026 13.7435897,3.25192733 13.7435897,3.59179487 C13.7435897,3.93166241 13.4680727,4.20717949 13.1282051,4.20717949 Z" id="Shape"></path>
            </g>
        </g>
    </g>
</svg>